<svg width="147" height="45" viewBox="0 0 147 45" fill="none" xmlns="http://www.w3.org/2000/svg">
<g clip-path="url(#clip0_439_5762)">
<path d="M13.615 44.9341C10.6131 44.9341 7.71669 42.7996 5.73844 38.8203C4.1838 35.7063 2.80653 33.0539 1.64105 30.8616C0.333721 28.4408 -0.230817 25.2689 0.0864312 22.0971C0.404636 18.9252 1.53465 16.157 3.26562 14.5421L17.0415 1.45084C18.9133 -0.336185 21.1743 -0.451991 23.1171 0.990774C25.0589 2.48987 26.4372 5.43019 26.7899 8.89158L28.5563 26.4222C29.0154 30.9774 27.6381 35.4763 25.1298 37.6091C23.3289 39.1661 20.8916 41.0689 17.9242 43.3192C16.5469 44.4145 15.0632 44.9341 13.615 44.9341ZM3.93655 16.5028C2.5947 17.7719 1.71197 19.9048 1.46469 22.385C1.21741 24.8652 1.6765 27.4018 2.70109 29.2483C3.90204 31.439 5.27932 34.1493 6.83296 37.2633C9.37673 42.338 13.6859 43.9529 17.3242 41.1847C20.2552 38.9361 22.657 37.0333 24.4589 35.4763C26.4372 33.8035 27.4963 30.2858 27.1435 26.7101L25.3771 9.17946C25.0944 6.4113 24.0353 4.16267 22.5161 3.0094C20.9615 1.79824 19.2315 1.97035 17.7478 3.35522L3.93655 16.5028Z" fill="url(#paint0_linear_439_5762)"/>
<path d="M40.4364 14.4333C42.1203 14.4333 43.5396 15.5917 44.4073 18.0236L42.2802 19.6731C41.8197 19.0363 41.4471 18.4582 40.4714 18.4582C39.4078 18.4582 38.3266 19.7883 38.3266 22.2506C38.3266 24.6825 39.4078 25.956 40.4714 25.956C41.4471 25.956 41.8197 25.4345 42.2802 24.7977L44.4433 26.4472C43.5396 28.8791 42.1563 29.9788 40.4364 29.9788C38.3799 29.9788 35.6139 27.5773 35.6139 22.2506C35.6139 17.0109 38.3799 14.4333 40.4364 14.4333ZM51.5357 14.4638C53.2552 14.4638 55.0111 16.3437 55.0111 21.1205V29.7484H52.2089V21.4399C52.2089 19.1515 51.7312 18.4278 50.8448 18.4278C49.5854 18.4278 48.8588 20.425 48.6817 21.2944V29.7484H45.8795V9.28052H48.6817V17.2999C48.8588 16.5762 49.7985 14.4638 51.5357 14.4638ZM63.3453 14.6941H66.146V29.7484H63.3453V28.2423C63.2203 28.7639 62.3869 30.0375 60.9694 30.0375C58.8596 30.0375 56.43 27.5773 56.43 22.1919C56.43 17.0109 58.8596 14.4333 60.9694 14.4333C62.3869 14.4333 63.2203 15.7656 63.3453 16.0828V14.6941ZM61.3766 26.0125C62.5294 26.0125 63.4691 24.7108 63.4691 22.1919C63.4691 19.7601 62.5294 18.4582 61.3766 18.4582C60.1705 18.4582 59.1429 19.7883 59.1429 22.1919C59.1429 24.6825 60.1705 26.0125 61.3766 26.0125ZM73.611 14.4638C75.3309 14.4638 77.0865 16.3437 77.0865 21.1205V29.7484H74.2847V21.4399C74.2847 19.1515 73.8066 18.4278 72.9201 18.4278C71.6607 18.4278 70.9342 20.425 70.7556 21.2944V29.7484H67.9552V14.6941H70.7556V17.2999C70.9342 16.5762 71.8739 14.4638 73.611 14.4638ZM85.4196 14.6941H88.2214V29.7484C88.2214 34.321 85.3846 35.7118 83.3281 35.7118C82.3524 35.7118 81.466 35.4511 80.8989 34.9578V31.224C81.466 31.7152 82.3164 31.9195 83.3281 31.9195C84.976 31.9195 85.4196 30.5286 85.4196 29.7484V28.2423C85.2957 28.7639 84.4622 30.0375 83.0433 30.0375C80.9335 30.0375 78.5043 27.5773 78.5043 22.1919C78.5043 17.0109 80.9335 14.4333 83.0433 14.4333C84.4622 14.4333 85.2957 15.7656 85.4196 16.0828V14.6941ZM83.452 26.0125C84.6048 26.0125 85.5445 24.7108 85.5445 22.1919C85.5445 19.7601 84.6048 18.4582 83.452 18.4582C82.2462 18.4582 81.2172 19.7883 81.2172 22.1919C81.2172 24.6825 82.2462 26.0125 83.452 26.0125ZM94.6041 14.4333C96.6967 14.4333 99.6227 17.0109 99.0369 23.8132H92.6009C92.9202 25.3758 93.7537 26.1864 94.8706 26.1864C96.0058 26.1864 96.36 25.7822 96.9991 25.3475L98.5404 27.7794C97.7257 29.0812 96.6261 30.0375 94.764 30.0375C92.477 30.0375 89.7469 27.4599 89.7469 22.2789C89.7469 17.0109 92.513 14.4333 94.6041 14.4333ZM94.6041 18.3409C93.807 18.3409 92.9908 19.095 92.6369 20.5989H96.5555C96.2707 19.095 95.4031 18.3409 94.6041 18.3409ZM105.811 14.4333C107.921 14.4333 110.35 17.0109 110.35 22.1919C110.35 27.5773 107.921 30.0375 105.811 30.0375C104.392 30.0375 103.559 28.7639 103.435 28.2423V29.7484H100.633V14.6941V9.28052H103.435V16.0828C103.559 15.7656 104.392 14.4333 105.811 14.4333ZM105.402 26.0125C106.608 26.0125 107.637 24.6825 107.637 22.1919C107.637 19.7883 106.608 18.4582 105.402 18.4582C104.251 18.4582 103.311 19.7601 103.311 22.1919C103.311 24.7108 104.251 26.0125 105.402 26.0125ZM114.676 9.28052V29.7484H111.874V9.28052H114.676ZM121.059 14.4333C123.152 14.4333 125.918 17.0109 125.918 22.2789C125.918 27.5773 123.152 30.0375 121.059 30.0375C118.968 30.0375 116.202 27.5773 116.202 22.2789C116.202 17.0109 118.968 14.4333 121.059 14.4333ZM121.059 18.4582C119.995 18.4582 118.915 19.7883 118.915 22.2789C118.915 24.6825 119.995 26.0125 121.059 26.0125C122.124 26.0125 123.222 24.6825 123.222 22.2789C123.222 19.7883 122.124 18.4582 121.059 18.4582ZM131.982 14.4333C133.666 14.4333 135.085 15.5917 135.953 18.0236L133.826 19.6731C133.365 19.0363 132.993 18.4582 132.017 18.4582C130.953 18.4582 129.872 19.7883 129.872 22.2506C129.872 24.6825 130.953 25.956 132.017 25.956C132.993 25.956 133.365 25.4345 133.826 24.7977L135.989 26.4472C135.085 28.8791 133.702 29.9788 131.982 29.9788C129.926 29.9788 127.159 27.5773 127.159 22.2506C127.159 17.0109 129.926 14.4333 131.982 14.4333ZM143.808 29.7484L140.812 23.9001L140.227 24.9129V29.7484H137.425V24.2761V9.28052H140.227V19.3254L142.834 14.6941H146.184L142.532 20.977L147 29.7484H143.808Z" fill="white"/>
</g>
<defs>
<linearGradient id="paint0_linear_439_5762" x1="0.000171219" y1="0.000246684" x2="28.6435" y2="0.000246684" gradientUnits="userSpaceOnUse">
<stop stop-color="#006838"/>
<stop offset="1" stop-color="#96CF24"/>
</linearGradient>
<clipPath id="clip0_439_5762">
<rect width="147" height="45" fill="white"/>
</clipPath>
</defs>
</svg>
